<svg width="800" height="800" viewBox="0 0 800 800" fill="none" xmlns="http://www.w3.org/2000/svg">
<path opacity="0.5" d="M400 67C252.724 67 133.333 200.419 133.333 350.333C133.333 499.073 218.444 660.747 351.237 722.813C382.19 737.283 417.81 737.283 448.763 722.813C581.557 660.747 666.667 499.073 666.667 350.333C666.667 200.419 547.277 67 400 67Z" fill="#95A1F9"/>
<path d="M400 417C446.023 417 483.333 379.69 483.333 333.667C483.333 287.643 446.023 250.333 400 250.333C353.977 250.333 316.667 287.643 316.667 333.667C316.667 379.69 353.977 417 400 417Z" fill="#232521"/>
</svg>
