<svg width="734" height="800" viewBox="0 0 734 800" fill="none" xmlns="http://www.w3.org/2000/svg">
<path d="M533.667 800V366.667H733.667V800H533.667ZM600.333 433.333V733.333H667V433.333H600.333ZM467 800H267V533.333H467V800ZM333.667 733.333H400.333V600H333.667V733.333ZM200.333 800H0.333344V600H200.333V800ZM67 733.333H133.667V666.667H67V733.333ZM0.333344 533.333V466.667C260.333 466.667 427 353.333 537 103.333L393.667 160L367 96.6667L617 1.52588e-05L717 240L653.667 266.667L597 126.667C477 403.333 287 533.333 0.333344 533.333Z" fill="#F2F1F2"/>
</svg>
