<svg width="800" height="524" viewBox="0 0 800 524" fill="none" xmlns="http://www.w3.org/2000/svg">
<path d="M252.621 399.582H364.187V425.319H252.621V446.535H603.506V425.319H473.427V399.582H618.103V340.817H252.621V399.582Z" fill="#F2F1F2"/>
<path d="M155.455 45.9941H687.369V258.609H732.946V0.417435H109.879V142.799H155.455V45.9941Z" fill="#F2F1F2"/>
<path d="M0 514.015H237.926V157.102H0V514.015ZM123.984 496.092C117.661 496.092 112.516 490.981 112.516 484.641C112.516 478.317 117.661 473.189 123.984 473.189C130.324 473.189 135.436 478.301 135.436 484.641C135.436 490.981 130.324 496.092 123.984 496.092ZM34.4037 191.505H203.555L203.539 454.808H34.4037V191.505Z" fill="#F2F1F2"/>
<path d="M634.256 272.321V523.583H800V272.321H634.256ZM720.495 282.708C722.477 282.708 724.099 284.362 724.099 286.328C724.099 288.311 722.477 289.965 720.495 289.965C718.48 289.965 716.841 288.311 716.841 286.328C716.841 284.346 718.463 282.708 720.495 282.708ZM698.968 294.765H741.94V298.239H698.968V294.765ZM719.053 512.737C714.286 512.737 710.469 508.871 710.469 504.136C710.469 499.385 714.286 495.552 719.053 495.552C723.788 495.552 727.654 499.385 727.654 504.136C727.654 508.855 723.788 512.737 719.053 512.737ZM776.032 483.15C737.238 483.363 677.474 483.51 658.257 483.347V310.591L776.032 310.575V483.15Z" fill="#F2F1F2"/>
</svg>
