<svg width="668" height="675" viewBox="0 0 668 675" fill="none" xmlns="http://www.w3.org/2000/svg">
<path fill-rule="evenodd" clip-rule="evenodd" d="M228.31 607.667C214.582 646.506 177.541 674.333 134 674.333C78.7715 674.333 34 629.562 34 574.333C34 519.105 78.7715 474.333 134 474.333C177.541 474.333 214.582 502.16 228.31 541H517.333C563.357 541 600.667 503.69 600.667 457.667C600.667 411.643 563.357 374.333 517.333 374.333H150.667C67.824 374.333 0.666687 307.176 0.666687 224.333C0.666687 141.491 67.824 74.3333 150.667 74.3333H253.526L210.43 31.2369L257.57 -15.9035L381.14 107.667L257.57 231.237L210.43 184.096L253.526 141H150.667C104.643 141 67.3334 178.31 67.3334 224.333C67.3334 270.357 104.643 307.667 150.667 307.667H517.333C600.176 307.667 667.333 374.824 667.333 457.667C667.333 540.509 600.176 607.667 517.333 607.667H228.31ZM134 541C115.591 541 100.667 555.924 100.667 574.333C100.667 592.743 115.591 607.667 134 607.667C152.41 607.667 167.333 592.743 167.333 574.333C167.333 555.924 152.41 541 134 541ZM534 7.66668C589.228 7.66668 634 52.4382 634 107.667C634 162.895 589.228 207.667 534 207.667C478.772 207.667 434 162.895 434 107.667C434 52.4382 478.772 7.66668 534 7.66668ZM534 74.3333C515.591 74.3333 500.667 89.2572 500.667 107.667C500.667 126.076 515.591 141 534 141C552.409 141 567.333 126.076 567.333 107.667C567.333 89.2572 552.409 74.3333 534 74.3333Z" fill="#F2F1F2"/>
</svg>
